<?xml version="1.0" standalone="no"?>
<!DOCTYPE svg PUBLIC "-//W3C//DTD SVG 20010904//EN"
 "http://www.w3.org/TR/2001/REC-SVG-20010904/DTD/svg10.dtd">
<svg version="1.0" xmlns="http://www.w3.org/2000/svg"
 width="1280.000000pt" height="905.000000pt" viewBox="0 0 1280.000000 905.000000"
 preserveAspectRatio="xMidYMid meet">
<g transform="translate(0.000000,905.000000) scale(0.100000,-0.100000)"
fill="#000000" stroke="none">
<path d="M8538 9008 c-3 -21 -11 -24 -78 -30 -116 -12 -184 -39 -279 -111 -93
-71 -207 -234 -248 -353 l-11 -31 -128 -7 c-132 -7 -339 -37 -388 -56 -16 -6
-112 -10 -226 -10 l-200 0 -97 -36 c-141 -51 -143 -52 -143 -71 0 -9 -33 -51
-72 -92 -40 -42 -94 -104 -120 -138 -39 -51 -53 -63 -75 -63 -16 0 -49 -8 -75
-17 -71 -25 -96 -13 -125 62 -27 72 -60 103 -179 169 -49 27 -92 54 -96 60 -4
6 -8 34 -8 61 l-1 50 -73 43 c-97 56 -125 55 -251 -4 -169 -80 -275 -95 -371
-50 -28 13 -55 29 -58 35 -4 6 -27 23 -52 37 -52 31 -74 28 -129 -16 -43 -34
-54 -36 -100 -14 -24 11 -38 29 -53 64 -20 47 -22 49 -69 55 -26 4 -72 11
-102 16 -86 14 -138 11 -183 -12 -38 -20 -46 -20 -97 -9 -112 25 -196 83 -262
179 -39 58 -65 64 -135 32 -46 -21 -78 -59 -119 -139 -24 -49 -28 -53 -53 -47
-15 3 -36 15 -47 25 -29 27 -79 14 -83 -21 -6 -53 -23 -77 -66 -93 -36 -14
-45 -23 -55 -56 -10 -33 -25 -49 -94 -97 -45 -32 -110 -86 -145 -121 -60 -60
-65 -63 -105 -60 -31 2 -44 9 -53 25 -6 13 -27 34 -48 48 -34 23 -39 24 -64
11 -38 -20 -70 -57 -74 -86 -2 -21 -7 -25 -33 -22 -16 2 -35 8 -42 14 -7 6
-28 7 -48 4 -54 -11 -105 -68 -145 -164 -47 -113 -76 -146 -175 -191 -73 -34
-85 -43 -109 -87 -32 -57 -31 -104 4 -151 20 -28 21 -32 7 -66 -17 -39 -51
-61 -110 -72 -47 -9 -86 -39 -103 -81 -8 -18 -21 -78 -29 -134 -18 -120 -29
-148 -85 -220 -56 -72 -79 -90 -117 -90 -34 0 -53 -18 -87 -82 -19 -35 -19
-35 4 -82 20 -42 21 -50 9 -73 -8 -15 -37 -42 -66 -60 -49 -33 -51 -37 -46
-69 7 -41 -13 -67 -90 -116 l-49 -31 6 -61 c2 -34 6 -74 8 -90 3 -27 -3 -33
-52 -61 -36 -20 -61 -42 -72 -65 -13 -26 -28 -37 -59 -46 -58 -18 -79 -40 -79
-85 0 -59 -16 -87 -66 -119 -26 -16 -51 -31 -57 -33 -5 -1 2 -26 17 -54 14
-29 27 -66 28 -84 3 -30 1 -32 -52 -46 -30 -7 -61 -20 -69 -28 -8 -8 -18 -42
-22 -75 -8 -69 -24 -92 -101 -141 l-48 -31 -73 36 c-84 41 -87 42 -129 20 -27
-14 -37 -14 -70 -3 -34 11 -46 10 -94 -6 -66 -22 -73 -30 -83 -93 -13 -82 -51
-125 -128 -143 -52 -12 -67 -5 -82 37 -14 39 -57 64 -110 64 -23 0 -31 -6 -39
-29 -6 -16 -19 -34 -29 -39 -26 -14 -82 -3 -94 19 -5 11 -16 19 -24 19 -27 0
-145 -64 -151 -82 -8 -27 40 -151 89 -231 76 -121 163 -193 298 -245 18 -7 29
-22 38 -53 7 -24 33 -88 58 -144 61 -138 100 -175 125 -121 13 29 36 40 53 26
17 -14 -18 -178 -51 -239 -13 -24 -24 -49 -24 -57 0 -7 20 -30 45 -51 41 -33
46 -42 43 -73 -3 -31 -6 -35 -35 -38 -51 -5 -50 -29 6 -86 27 -28 67 -82 89
-121 32 -58 50 -77 103 -113 75 -49 88 -64 82 -95 -3 -18 4 -26 41 -46 36 -19
54 -22 93 -17 54 7 71 -2 96 -50 27 -51 69 -79 184 -119 194 -69 211 -76 217
-90 3 -8 -15 -54 -40 -102 -43 -82 -49 -88 -96 -108 -30 -12 -56 -31 -66 -47
-15 -26 -15 -29 4 -55 34 -45 98 -89 173 -118 41 -15 71 -33 71 -41 0 -28
-103 -73 -217 -94 -31 -5 -61 -14 -65 -18 -15 -15 10 -72 58 -132 39 -50 52
-60 78 -60 81 0 151 -42 186 -111 11 -21 35 -55 52 -75 l32 -36 116 7 c100 6
126 4 205 -16 111 -27 142 -56 175 -156 33 -98 52 -132 109 -187 49 -48 51
-49 77 -35 39 20 86 90 123 180 48 116 67 139 148 179 39 19 82 45 95 58 45
41 101 18 154 -63 41 -65 57 -75 121 -75 26 -1 57 -6 69 -13 44 -26 114 -92
114 -108 0 -24 -52 -59 -85 -59 -15 0 -49 12 -75 26 l-47 26 -52 -39 c-29 -22
-78 -50 -109 -63 -31 -12 -62 -28 -69 -34 -9 -8 1 -42 41 -141 85 -210 98
-232 148 -245 24 -6 59 -19 78 -28 31 -15 36 -23 47 -75 6 -34 20 -69 33 -82
21 -22 106 -68 173 -94 23 -9 27 -16 27 -48 l0 -38 83 -23 c45 -12 91 -22 102
-22 37 0 48 -15 41 -55 -10 -51 -60 -101 -131 -130 -43 -17 -61 -30 -63 -44
-3 -16 -11 -21 -32 -21 -23 0 -30 -7 -44 -40 -9 -22 -16 -50 -16 -62 0 -36 69
-148 98 -159 72 -28 203 -51 282 -51 73 1 101 7 200 41 169 60 220 55 376 -34
l79 -45 154 0 153 0 38 -41 38 -41 100 -7 c113 -8 132 -17 200 -93 71 -78 182
-98 335 -59 91 24 145 50 196 96 63 57 139 47 262 -34 130 -84 171 -89 328
-34 154 53 202 49 283 -23 l37 -33 124 6 c141 7 116 17 214 -88 50 -55 109
-78 156 -62 277 93 276 93 287 134 12 42 7 40 163 54 37 4 67 10 67 15 0 20
56 73 101 95 57 29 79 58 79 102 0 55 20 83 82 114 53 27 65 40 123 128 l65
98 52 7 c28 4 83 18 122 32 48 17 91 24 140 24 80 0 376 50 480 81 44 13 107
45 170 85 55 35 118 69 140 75 46 13 241 7 321 -10 28 -5 76 -15 109 -21 42
-9 68 -21 96 -46 20 -19 54 -41 73 -49 26 -11 38 -23 43 -43 12 -57 4 -54 152
-50 120 3 143 6 181 26 l44 23 45 -28 c26 -16 64 -52 87 -80 22 -28 48 -52 58
-52 10 -1 55 15 99 34 111 49 119 47 134 -38 29 -157 85 -203 362 -299 253
-88 345 -103 454 -78 24 5 55 12 69 15 37 7 49 43 49 148 0 112 10 153 60 237
54 91 57 108 26 177 -31 70 -61 235 -47 261 5 9 18 25 29 35 19 17 19 22 7 58
-8 21 -26 58 -40 82 -14 24 -25 52 -25 62 0 51 153 292 285 447 36 42 65 81
65 87 0 22 -36 71 -52 71 -10 0 -35 -16 -57 -35 -47 -43 -66 -46 -56 -8 10 42
51 91 95 113 45 23 71 25 88 8 9 -9 18 -7 39 8 29 21 39 35 103 144 31 53 43
66 70 71 18 4 51 26 77 50 l44 44 147 1 c132 0 154 3 217 26 39 14 94 31 123
38 41 9 56 18 63 36 5 14 19 28 32 33 22 9 25 16 31 108 4 54 11 116 16 138 6
22 7 98 4 170 -6 129 -6 130 20 164 14 19 26 39 26 43 0 5 -16 16 -35 24 -40
16 -40 17 -20 99 26 107 21 138 -32 213 -98 136 -157 172 -292 172 -36 1 -84
8 -106 16 -57 22 -70 20 -170 -30 -133 -66 -240 -141 -329 -229 -75 -75 -80
-78 -106 -67 -30 12 -84 59 -116 101 -26 35 -57 44 -78 24 -20 -21 -21 -73 -1
-95 19 -21 11 -47 -17 -56 -19 -6 -20 -13 -7 -64 3 -12 -7 -15 -56 -13 -119 4
-316 71 -465 158 -86 50 -91 59 -68 121 10 29 9 36 -8 55 -10 12 -39 31 -64
42 -71 31 -80 43 -80 103 0 57 -6 65 -104 146 -28 24 -28 24 -12 57 10 18 31
40 47 49 16 10 30 22 32 27 8 21 -13 187 -32 267 -12 46 -37 137 -57 203 -53
178 -54 203 -10 312 l36 91 -8 129 c-10 139 -10 139 44 210 31 40 34 51 34
110 0 61 3 68 35 104 44 49 45 84 5 161 -39 73 -39 104 -6 202 37 106 31 133
-40 201 -44 43 -54 58 -54 86 0 53 -17 100 -47 131 -26 27 -28 36 -34 141 l-6
112 -54 91 -54 91 -80 24 c-67 20 -81 28 -83 47 -2 13 -16 29 -35 39 -17 8
-57 41 -89 71 -50 47 -58 60 -58 91 0 45 -9 75 -54 176 l-35 79 -68 19 c-88
24 -109 46 -118 128 -9 78 -21 106 -66 156 -24 26 -48 43 -71 47 -34 6 -35 8
-59 92 l-24 86 -66 49 c-102 75 -155 154 -126 188 28 32 27 40 -6 73 -33 34
-50 89 -98 316 -12 58 -29 79 -153 186 l-68 59 6 62 6 61 -70 94 c-38 51 -72
95 -75 98 -3 4 -29 6 -58 7 -50 0 -52 1 -91 53 -48 64 -73 72 -134 42 l-46
-23 -37 21 c-47 27 -47 27 -51 0z"/>
</g>
</svg>
